<svg width="32" height="32" viewBox="0 0 32 32" fill="none" xmlns="http://www.w3.org/2000/svg">
<rect width="32" height="32" rx="2" fill="#DF5B5B"/>
<path d="M20.9997 19.125C20.9997 20.5695 20.4927 21.7987 19.4788 22.8125C18.465 23.8264 17.2358 24.3334 15.7913 24.3334C14.3469 24.3334 13.1177 23.8264 12.1038 22.8125C11.09 21.7987 10.583 20.5695 10.583 19.125L10.583 11.4167C10.583 10.375 10.9476 9.48963 11.6768 8.76046C12.4059 8.03129 13.2913 7.66671 14.333 7.66671C15.3747 7.66671 16.2601 8.03129 16.9893 8.76046C17.7184 9.48963 18.083 10.375 18.083 11.4167L18.083 18.7084C18.083 19.3473 17.8608 19.8889 17.4163 20.3334C16.9719 20.7778 16.4302 21 15.7913 21C15.1525 21 14.6108 20.7778 14.1663 20.3334C13.7219 19.8889 13.4997 19.3473 13.4997 18.7084L13.4997 11L15.1663 11L15.1663 18.7084C15.1663 18.8889 15.2254 19.0382 15.3434 19.1563C15.4615 19.2743 15.6108 19.3334 15.7913 19.3334C15.9719 19.3334 16.1212 19.2743 16.2393 19.1563C16.3573 19.0382 16.4163 18.8889 16.4163 18.7084L16.4163 11.4167C16.4025 10.8334 16.1976 10.3403 15.8018 9.93754C15.4059 9.53477 14.9163 9.33338 14.333 9.33338C13.7497 9.33338 13.2566 9.53477 12.8538 9.93754C12.4511 10.3403 12.2497 10.8334 12.2497 11.4167L12.2497 19.125C12.2358 20.1112 12.5761 20.948 13.2705 21.6355C13.965 22.323 14.8052 22.6667 15.7913 22.6667C16.7636 22.6667 17.59 22.323 18.2705 21.6355C18.9511 20.948 19.3052 20.1112 19.333 19.125L19.333 11L20.9997 11L20.9997 19.125Z" fill="white"/>
</svg>
