<svg width="44" height="44" viewBox="0 0 44 44" fill="none" xmlns="http://www.w3.org/2000/svg">
<circle cx="22" cy="22" r="20.6897" stroke="black" stroke-width="1.37931"/>
<path d="M15.7934 28.2069C15.4141 28.2069 15.0893 28.0719 14.8192 27.8017C14.5491 27.5316 14.4141 27.2069 14.4141 26.8276V18.5517C14.4141 18.1724 14.5491 17.8477 14.8192 17.5776C15.0893 17.3075 15.4141 17.1724 15.7934 17.1724H17.9658L19.2416 15.7931H23.3796V17.1724H19.8451L18.5865 18.5517H15.7934V26.8276H26.8279V20.6207H28.2072V26.8276C28.2072 27.2069 28.0721 27.5316 27.802 27.8017C27.5319 28.0719 27.2072 28.2069 26.8279 28.2069H15.7934ZM26.8279 18.5517V17.1724H25.4485V15.7931H26.8279V14.4138H28.2072V15.7931H29.5865V17.1724H28.2072V18.5517H26.8279ZM21.3106 25.7931C22.1727 25.7931 22.9054 25.4914 23.5089 24.888C24.1123 24.2845 24.4141 23.5517 24.4141 22.6897C24.4141 21.8276 24.1123 21.0949 23.5089 20.4914C22.9054 19.888 22.1727 19.5862 21.3106 19.5862C20.4485 19.5862 19.7158 19.888 19.1123 20.4914C18.5089 21.0949 18.2072 21.8276 18.2072 22.6897C18.2072 23.5517 18.5089 24.2845 19.1123 24.888C19.7158 25.4914 20.4485 25.7931 21.3106 25.7931ZM21.3106 24.4138C20.8279 24.4138 20.4198 24.2472 20.0865 23.9138C19.7531 23.5805 19.5865 23.1724 19.5865 22.6897C19.5865 22.2069 19.7531 21.7989 20.0865 21.4655C20.4198 21.1322 20.8279 20.9655 21.3106 20.9655C21.7934 20.9655 22.2014 21.1322 22.5348 21.4655C22.8681 21.7989 23.0348 22.2069 23.0348 22.6897C23.0348 23.1724 22.8681 23.5805 22.5348 23.9138C22.2014 24.2472 21.7934 24.4138 21.3106 24.4138Z" fill="black"/>
</svg>
