<svg width="36" height="36" viewBox="0 0 36 36" fill="none" xmlns="http://www.w3.org/2000/svg">
<rect x="1" y="1" width="34" height="34" rx="17" stroke="#D9D9D9" stroke-width="2"/>
<path d="M13.834 25.5C13.3757 25.5 12.9833 25.3368 12.6569 25.0104C12.3305 24.684 12.1673 24.2917 12.1673 23.8333V13H11.334V11.3333H15.5007V10.5H20.5007V11.3333H24.6673V13H23.834V23.8333C23.834 24.2917 23.6708 24.684 23.3444 25.0104C23.018 25.3368 22.6257 25.5 22.1673 25.5H13.834ZM22.1673 13H13.834V23.8333H22.1673V13ZM15.5007 22.1667H17.1673V14.6667H15.5007V22.1667ZM18.834 22.1667H20.5007V14.6667H18.834V22.1667Z" fill="#D9D9D9"/>
</svg>
