<svg width="26" height="26" viewBox="0 0 26 26" fill="none" xmlns="http://www.w3.org/2000/svg">
<rect width="26" height="26" rx="13" fill="#ECDFFD"/>
<g clip-path="url(#clip0_7253_2668)">
<path d="M14.3333 12.3333H19V9H14.3333V12.3333ZM16.6667 11.5L15 10.3333V9.66667L16.6667 10.8333L18.3333 9.66667V10.3333L16.6667 11.5ZM6.33333 19C5.96667 19 5.65278 18.8694 5.39167 18.6083C5.13056 18.3472 5 18.0333 5 17.6667V8.33333C5 7.96667 5.13056 7.65278 5.39167 7.39167C5.65278 7.13056 5.96667 7 6.33333 7H19.6667C20.0333 7 20.3472 7.13056 20.6083 7.39167C20.8694 7.65278 21 7.96667 21 8.33333V17.6667C21 18.0333 20.8694 18.3472 20.6083 18.6083C20.3472 18.8694 20.0333 19 19.6667 19H6.33333ZM15.6 17.6667H19.6667V8.33333H6.33333V17.6667H6.4C6.86667 16.8333 7.51111 16.1806 8.33333 15.7083C9.15556 15.2361 10.0444 15 11 15C11.9556 15 12.8444 15.2361 13.6667 15.7083C14.4889 16.1806 15.1333 16.8333 15.6 17.6667ZM11 14.3333C11.5556 14.3333 12.0278 14.1389 12.4167 13.75C12.8056 13.3611 13 12.8889 13 12.3333C13 11.7778 12.8056 11.3056 12.4167 10.9167C12.0278 10.5278 11.5556 10.3333 11 10.3333C10.4444 10.3333 9.97222 10.5278 9.58333 10.9167C9.19444 11.3056 9 11.7778 9 12.3333C9 12.8889 9.19444 13.3611 9.58333 13.75C9.97222 14.1389 10.4444 14.3333 11 14.3333ZM8.03333 17.6667H13.9667C13.5889 17.2444 13.1417 16.9167 12.625 16.6833C12.1083 16.45 11.5667 16.3333 11 16.3333C10.4333 16.3333 9.89444 16.45 9.38333 16.6833C8.87222 16.9167 8.42222 17.2444 8.03333 17.6667ZM11 13C10.8111 13 10.6528 12.9361 10.525 12.8083C10.3972 12.6806 10.3333 12.5222 10.3333 12.3333C10.3333 12.1444 10.3972 11.9861 10.525 11.8583C10.6528 11.7306 10.8111 11.6667 11 11.6667C11.1889 11.6667 11.3472 11.7306 11.475 11.8583C11.6028 11.9861 11.6667 12.1444 11.6667 12.3333C11.6667 12.5222 11.6028 12.6806 11.475 12.8083C11.3472 12.9361 11.1889 13 11 13Z" fill="white"/>
</g>
<defs>
<clipPath id="clip0_7253_2668">
<rect width="16" height="16" fill="white" transform="translate(5 5)"/>
</clipPath>
</defs>
</svg>
