<svg width="20" height="20" viewBox="0 0 20 20" fill="none" xmlns="http://www.w3.org/2000/svg">
<rect width="20" height="20" rx="10" fill="#D9D9D9"/>
<path d="M6.5 13.5H7.2125L12.1 8.6125L11.3875 7.9L6.5 12.7875V13.5ZM5.5 14.5V12.375L12.1 5.7875C12.2 5.69583 12.3104 5.625 12.4313 5.575C12.5521 5.525 12.6792 5.5 12.8125 5.5C12.9458 5.5 13.075 5.525 13.2 5.575C13.325 5.625 13.4333 5.7 13.525 5.8L14.2125 6.5C14.3125 6.59167 14.3854 6.7 14.4313 6.825C14.4771 6.95 14.5 7.075 14.5 7.2C14.5 7.33333 14.4771 7.46042 14.4313 7.58125C14.3854 7.70208 14.3125 7.8125 14.2125 7.9125L7.625 14.5H5.5ZM11.7375 8.2625L11.3875 7.9L12.1 8.6125L11.7375 8.2625Z" fill="white"/>
</svg>
