<svg width="20" height="20" viewBox="0 0 20 20" fill="none" xmlns="http://www.w3.org/2000/svg">
<path d="M2.50016 15.8334C2.04183 15.8334 1.64947 15.6702 1.32308 15.3438C0.996691 15.0174 0.833496 14.625 0.833496 14.1667V5.83335C0.833496 5.37502 0.996691 4.98266 1.32308 4.65627C1.64947 4.32988 2.04183 4.16669 2.50016 4.16669H10.8335C11.2918 4.16669 11.6842 4.32988 12.0106 4.65627C12.337 4.98266 12.5002 5.37502 12.5002 5.83335V14.1667C12.5002 14.625 12.337 15.0174 12.0106 15.3438C11.6842 15.6702 11.2918 15.8334 10.8335 15.8334H2.50016ZM15.0002 9.16669C14.7641 9.16669 14.5661 9.08683 14.4064 8.9271C14.2467 8.76738 14.1668 8.56947 14.1668 8.33335V5.00002C14.1668 4.76391 14.2467 4.56599 14.4064 4.40627C14.5661 4.24655 14.7641 4.16669 15.0002 4.16669H18.3335C18.5696 4.16669 18.7675 4.24655 18.9272 4.40627C19.087 4.56599 19.1668 4.76391 19.1668 5.00002V8.33335C19.1668 8.56947 19.087 8.76738 18.9272 8.9271C18.7675 9.08683 18.5696 9.16669 18.3335 9.16669H15.0002ZM15.8335 7.50002H17.5002V5.83335H15.8335V7.50002ZM2.50016 14.1667H10.8335V5.83335H2.50016V14.1667ZM3.3335 12.5H10.0002L7.81266 9.58335L6.25016 11.6667L5.10433 10.1459L3.3335 12.5ZM15.0002 15.8334C14.7641 15.8334 14.5661 15.7535 14.4064 15.5938C14.2467 15.434 14.1668 15.2361 14.1668 15V11.6667C14.1668 11.4306 14.2467 11.2327 14.4064 11.0729C14.5661 10.9132 14.7641 10.8334 15.0002 10.8334H18.3335C18.5696 10.8334 18.7675 10.9132 18.9272 11.0729C19.087 11.2327 19.1668 11.4306 19.1668 11.6667V15C19.1668 15.2361 19.087 15.434 18.9272 15.5938C18.7675 15.7535 18.5696 15.8334 18.3335 15.8334H15.0002ZM15.8335 14.1667H17.5002V12.5H15.8335V14.1667Z" fill="#747474"/>
</svg>
