<svg width="28" height="32" viewBox="0 0 28 32" fill="none" xmlns="http://www.w3.org/2000/svg">
<path d="M9.45596 19.0573C8.36085 19.0573 7.4524 18.9204 6.73062 18.6466C6.02129 18.3729 5.4924 18.0182 5.14396 17.5826C4.80796 17.1346 4.63996 16.6431 4.63996 16.108C4.63996 15.66 4.7084 15.2804 4.84529 14.9693C4.98218 14.6458 5.21862 14.3346 5.55462 14.036L4.22929 14.0546V12.1506H8.13062C8.36707 12.0511 8.55374 11.9329 8.69062 11.796C8.83996 11.6466 8.91462 11.4849 8.91462 11.3106C8.91462 11.1613 8.87107 11.0182 8.78396 10.8813H4.21062V8.52931H9.82929C10.5013 8.52931 10.9742 8.50442 11.248 8.45464C11.5217 8.40487 11.7208 8.33642 11.8453 8.24931C12.0195 8.14976 12.1315 8.03153 12.1813 7.89465C12.2311 7.75776 12.256 7.58976 12.256 7.39064C12.256 7.0422 12.1688 6.7062 11.9946 6.38264C11.8204 6.05909 11.5715 5.71064 11.248 5.33731L13.32 4.12398C13.9173 4.87064 14.3217 5.5302 14.5333 6.10264C14.7573 6.67509 14.8693 7.27242 14.8693 7.89465C14.8693 8.18087 14.8133 8.52309 14.7013 8.92131C14.6017 9.30709 14.3902 9.65553 14.0666 9.96665C13.7555 10.2404 13.3822 10.452 12.9466 10.6013C12.5111 10.7506 11.92 10.8378 11.1733 10.8626C11.2604 11.0369 11.304 11.1924 11.304 11.3293C11.304 11.6529 11.2231 11.9266 11.0613 12.1506H14.776V14.0546L13.4506 14.036C14.1102 14.5462 14.44 15.2244 14.44 16.0706C14.44 16.6058 14.272 17.1035 13.936 17.564C13.6 18.012 13.0648 18.3729 12.3306 18.6466C11.6088 18.9204 10.6506 19.0573 9.45596 19.0573ZM9.53063 16.7426C10.3271 16.7426 10.8933 16.5995 11.2293 16.3133C11.5653 16.0146 11.7333 15.6662 11.7333 15.268C11.7333 14.82 11.5466 14.4591 11.1733 14.1853C10.8124 13.9115 10.2648 13.7746 9.53063 13.7746C8.78396 13.7746 8.23018 13.9178 7.86929 14.204C7.52085 14.4778 7.34662 14.8324 7.34662 15.268C7.34662 15.7035 7.52707 16.0582 7.88796 16.332C8.24885 16.6058 8.7964 16.7426 9.53063 16.7426Z" fill="#111111"/>
<path d="M17.5773 15.6386H20.0926L24.4863 27.3333H22.0526L21.089 24.5403H16.581L15.6173 27.3333H13.1836L17.5773 15.6386ZM20.3703 22.515L19.325 19.5913L18.9003 18.1703H18.7696L18.345 19.5913L17.2996 22.515H20.3703Z" fill="#111111"/>
<path d="M16.3332 7.33675C17.2506 7.04871 18.1629 7.04379 19.0701 7.32198C19.9773 7.60017 20.7283 8.11805 21.3231 8.87564C21.7211 9.38256 21.998 9.94173 22.1539 10.5532C22.3098 11.1646 22.3395 11.7873 22.243 12.4213L23.3961 11.5161L23.9209 12.1845L21.5813 14.0213L19.7445 11.6817L20.4129 11.1569L21.3838 12.3936C21.4783 11.8602 21.4635 11.3338 21.3394 10.8145C21.2153 10.2952 20.987 9.8238 20.6546 9.40045C20.2086 8.83226 19.6482 8.42811 18.9734 8.18799C18.2987 7.94788 17.6089 7.90645 16.904 8.0637L16.3332 7.33675Z" fill="#111111" stroke="#111111" stroke-width="0.233333"/>
<path d="M13.1145 25.6145C12.2138 26.0211 11.2836 26.1382 10.3238 25.9657C9.36404 25.7933 8.53419 25.3572 7.83429 24.6573C7.36597 24.189 7.01473 23.6525 6.78057 23.0478C6.54641 22.4431 6.43962 21.8113 6.46021 21.1526L5.39491 22.2179L4.77734 21.6003L6.93882 19.4389L9.10029 21.6003L8.48273 22.2179L7.34023 21.0754C7.30936 21.6312 7.38912 22.1664 7.57954 22.6811C7.76996 23.1957 8.06073 23.6486 8.45185 24.0397C8.97678 24.5646 9.5982 24.9082 10.3161 25.0703C11.034 25.2324 11.743 25.1899 12.4429 24.9429L13.1145 25.6145Z" fill="#111111" stroke="#111111" stroke-width="0.233333"/>
</svg>
