<svg width="20" height="20" viewBox="0 0 20 20" fill="none" xmlns="http://www.w3.org/2000/svg">
<path d="M3.3335 15.8334V14.1667H5.00016V8.33335C5.00016 7.18057 5.34739 6.15627 6.04183 5.26044C6.73627 4.3646 7.63905 3.7778 8.75016 3.50002V2.91669C8.75016 2.56946 8.87169 2.27433 9.11475 2.03127C9.3578 1.78821 9.65294 1.66669 10.0002 1.66669C10.3474 1.66669 10.6425 1.78821 10.8856 2.03127C11.1286 2.27433 11.2502 2.56946 11.2502 2.91669V3.50002C12.3613 3.7778 13.2641 4.3646 13.9585 5.26044C14.6529 6.15627 15.0002 7.18057 15.0002 8.33335V14.1667H16.6668V15.8334H3.3335ZM10.0002 18.3334C9.54183 18.3334 9.14947 18.1702 8.82308 17.8438C8.49669 17.5174 8.3335 17.125 8.3335 16.6667H11.6668C11.6668 17.125 11.5036 17.5174 11.1772 17.8438C10.8509 18.1702 10.4585 18.3334 10.0002 18.3334ZM6.66683 14.1667H13.3335V8.33335C13.3335 7.41669 13.0071 6.63196 12.3543 5.97919C11.7016 5.32641 10.9168 5.00002 10.0002 5.00002C9.0835 5.00002 8.29877 5.32641 7.646 5.97919C6.99322 6.63196 6.66683 7.41669 6.66683 8.33335V14.1667Z" fill="#747474"/>
</svg>
