<svg width="36" height="20" viewBox="0 0 36 20" fill="none" xmlns="http://www.w3.org/2000/svg">
<rect width="36" height="20" rx="10" fill="#D9D9D9"/>
<path d="M22 16.6667C21.4444 16.6667 20.9722 16.4723 20.5833 16.0834C20.1944 15.6945 20 15.2223 20 14.6667C20 14.6 20.0167 14.4445 20.05 14.2L15.3667 11.4667C15.1889 11.6334 14.9833 11.7639 14.75 11.8584C14.5167 11.9528 14.2667 12 14 12C13.4444 12 12.9722 11.8056 12.5833 11.4167C12.1944 11.0278 12 10.5556 12 10C12 9.44448 12.1944 8.97226 12.5833 8.58337C12.9722 8.19448 13.4444 8.00004 14 8.00004C14.2667 8.00004 14.5167 8.04726 14.75 8.14171C14.9833 8.23615 15.1889 8.36671 15.3667 8.53337L20.05 5.80004C20.0278 5.72226 20.0139 5.64726 20.0083 5.57504C20.0028 5.50282 20 5.42226 20 5.33337C20 4.77782 20.1944 4.3056 20.5833 3.91671C20.9722 3.52782 21.4444 3.33337 22 3.33337C22.5556 3.33337 23.0278 3.52782 23.4167 3.91671C23.8056 4.3056 24 4.77782 24 5.33337C24 5.88893 23.8056 6.36115 23.4167 6.75004C23.0278 7.13893 22.5556 7.33337 22 7.33337C21.7333 7.33337 21.4833 7.28615 21.25 7.19171C21.0167 7.09726 20.8111 6.96671 20.6333 6.80004L15.95 9.53337C15.9722 9.61115 15.9861 9.68615 15.9917 9.75837C15.9972 9.8306 16 9.91115 16 10C16 10.0889 15.9972 10.1695 15.9917 10.2417C15.9861 10.3139 15.9722 10.3889 15.95 10.4667L20.6333 13.2C20.8111 13.0334 21.0167 12.9028 21.25 12.8084C21.4833 12.7139 21.7333 12.6667 22 12.6667C22.5556 12.6667 23.0278 12.8612 23.4167 13.25C23.8056 13.6389 24 14.1112 24 14.6667C24 15.2223 23.8056 15.6945 23.4167 16.0834C23.0278 16.4723 22.5556 16.6667 22 16.6667ZM22 15.3334C22.1889 15.3334 22.3472 15.2695 22.475 15.1417C22.6028 15.0139 22.6667 14.8556 22.6667 14.6667C22.6667 14.4778 22.6028 14.3195 22.475 14.1917C22.3472 14.0639 22.1889 14 22 14C21.8111 14 21.6528 14.0639 21.525 14.1917C21.3972 14.3195 21.3333 14.4778 21.3333 14.6667C21.3333 14.8556 21.3972 15.0139 21.525 15.1417C21.6528 15.2695 21.8111 15.3334 22 15.3334ZM14 10.6667C14.1889 10.6667 14.3472 10.6028 14.475 10.475C14.6028 10.3473 14.6667 10.1889 14.6667 10C14.6667 9.81115 14.6028 9.65282 14.475 9.52504C14.3472 9.39726 14.1889 9.33337 14 9.33337C13.8111 9.33337 13.6528 9.39726 13.525 9.52504C13.3972 9.65282 13.3333 9.81115 13.3333 10C13.3333 10.1889 13.3972 10.3473 13.525 10.475C13.6528 10.6028 13.8111 10.6667 14 10.6667ZM22 6.00004C22.1889 6.00004 22.3472 5.93615 22.475 5.80837C22.6028 5.6806 22.6667 5.52226 22.6667 5.33337C22.6667 5.14448 22.6028 4.98615 22.475 4.85837C22.3472 4.7306 22.1889 4.66671 22 4.66671C21.8111 4.66671 21.6528 4.7306 21.525 4.85837C21.3972 4.98615 21.3333 5.14448 21.3333 5.33337C21.3333 5.52226 21.3972 5.6806 21.525 5.80837C21.6528 5.93615 21.8111 6.00004 22 6.00004Z" fill="#717171"/>
</svg>
