<svg width="28" height="28" viewBox="0 0 28 28" fill="none" xmlns="http://www.w3.org/2000/svg">
<path d="M4.6665 22.1666V19.8333H6.99984V11.6666C6.99984 10.0528 7.48595 8.61873 8.45817 7.36456C9.43039 6.1104 10.6943 5.28887 12.2498 4.89998V4.08331C12.2498 3.5972 12.42 3.18401 12.7603 2.84373C13.1005 2.50345 13.5137 2.33331 13.9998 2.33331C14.4859 2.33331 14.8991 2.50345 15.2394 2.84373C15.5797 3.18401 15.7498 3.5972 15.7498 4.08331V4.89998C17.3054 5.28887 18.5693 6.1104 19.5415 7.36456C20.5137 8.61873 20.9998 10.0528 20.9998 11.6666V19.8333H23.3332V22.1666H4.6665ZM13.9998 25.6666C13.3582 25.6666 12.8089 25.4382 12.3519 24.9812C11.895 24.5243 11.6665 23.975 11.6665 23.3333H16.3332C16.3332 23.975 16.1047 24.5243 15.6478 24.9812C15.1908 25.4382 14.6415 25.6666 13.9998 25.6666ZM9.33317 19.8333H18.6665V11.6666C18.6665 10.3833 18.2096 9.2847 17.2957 8.37081C16.3818 7.45692 15.2832 6.99998 13.9998 6.99998C12.7165 6.99998 11.6179 7.45692 10.704 8.37081C9.79012 9.2847 9.33317 10.3833 9.33317 11.6666V19.8333Z" fill="#111111"/>
</svg>
