<svg width="26" height="26" viewBox="0 0 26 26" fill="none" xmlns="http://www.w3.org/2000/svg">
<rect width="26" height="26" rx="13" fill="#ECDFFD"/>
<path d="M6.33398 18.9998V8.1665L9.66732 5.6665L13.0007 8.1665V9.6665H19.6673V18.9998H6.33398ZM7.66732 17.6665H9.00065V16.3332H7.66732V17.6665ZM7.66732 14.9998H9.00065V13.6665H7.66732V14.9998ZM7.66732 12.3332H9.00065V10.9998H7.66732V12.3332ZM7.66732 9.6665H9.00065V8.33317H7.66732V9.6665ZM10.334 9.6665H11.6673V8.33317H10.334V9.6665ZM10.334 17.6665H18.334V10.9998H10.334V17.6665ZM14.334 13.6665V12.3332H17.0007V13.6665H14.334ZM14.334 16.3332V14.9998H17.0007V16.3332H14.334ZM11.6673 13.6665V12.3332H13.0007V13.6665H11.6673ZM11.6673 16.3332V14.9998H13.0007V16.3332H11.6673Z" fill="white"/>
</svg>
