<svg width="32" height="32" viewBox="0 0 32 32" fill="none" xmlns="http://www.w3.org/2000/svg">
<path d="M14.8569 17.3333H8.19027C7.81249 17.3333 7.49582 17.2055 7.24027 16.95C6.98471 16.6944 6.85693 16.3777 6.85693 16C6.85693 15.6222 6.98471 15.3055 7.24027 15.05C7.49582 14.7944 7.81249 14.6666 8.19027 14.6666H14.8569V7.99996C14.8569 7.62218 14.9847 7.30551 15.2403 7.04996C15.4958 6.7944 15.8125 6.66663 16.1903 6.66663C16.568 6.66663 16.8847 6.7944 17.1403 7.04996C17.3958 7.30551 17.5236 7.62218 17.5236 7.99996V14.6666H24.1903C24.568 14.6666 24.8847 14.7944 25.1403 15.05C25.3958 15.3055 25.5236 15.6222 25.5236 16C25.5236 16.3777 25.3958 16.6944 25.1403 16.95C24.8847 17.2055 24.568 17.3333 24.1903 17.3333H17.5236V24C17.5236 24.3777 17.3958 24.6944 17.1403 24.95C16.8847 25.2055 16.568 25.3333 16.1903 25.3333C15.8125 25.3333 15.4958 25.2055 15.2403 24.95C14.9847 24.6944 14.8569 24.3777 14.8569 24V17.3333Z" fill="#E8EAED"/>
</svg>
