<svg width="44" height="44" viewBox="0 0 44 44" fill="none" xmlns="http://www.w3.org/2000/svg">
<circle cx="22" cy="22" r="20.6897" stroke="black" stroke-width="1.37931"/>
<path d="M30.6213 13.5518C30.6213 13.3231 30.5304 13.1039 30.3688 12.9422C30.2071 12.7805 29.9878 12.6897 29.7592 12.6897H14.242C14.0133 12.6897 13.794 12.7805 13.6324 12.9422C13.4707 13.1039 13.3799 13.3231 13.3799 13.5518V29.069C13.3799 29.2976 13.4707 29.5169 13.6324 29.6786C13.794 29.8403 14.0133 29.9311 14.242 29.9311H29.7592C29.9878 29.9311 30.2071 29.8403 30.3688 29.6786C30.5304 29.5169 30.6213 29.2976 30.6213 29.069V13.5518ZM28.8971 28.2069H15.104V26.0354L18.4885 23.3276L20.529 25.3681C20.6907 25.5298 20.9099 25.6205 21.1385 25.6205C21.3671 25.6205 21.5863 25.5298 21.748 25.3681L25.5126 21.6035L28.8971 24.3112V28.2069ZM28.8971 22.1026L25.9876 19.775C25.8219 19.6425 25.6132 19.5757 25.4013 19.5875C25.1894 19.5992 24.9894 19.6887 24.8394 19.8388L21.1385 23.5397L19.1618 21.563C19.0118 21.4129 18.8117 21.3234 18.5998 21.3116C18.388 21.2998 18.1792 21.3666 18.0135 21.4992L15.104 23.8268V14.4138H28.8971V22.1026ZM16.8282 17.8621C16.8282 17.5211 16.9293 17.1878 17.1187 16.9042C17.3082 16.6207 17.5775 16.3997 17.8925 16.2692C18.2075 16.1387 18.5542 16.1046 18.8887 16.1711C19.2231 16.2376 19.5303 16.4018 19.7714 16.643C20.0126 16.8841 20.1768 17.1913 20.2433 17.5257C20.3098 17.8602 20.2757 18.2069 20.1452 18.5219C20.0147 18.837 19.7937 19.1062 19.5102 19.2957C19.2266 19.4851 18.8933 19.5862 18.5523 19.5862C18.095 19.5862 17.6565 19.4046 17.3331 19.0813C17.0098 18.7579 16.8282 18.3194 16.8282 17.8621Z" fill="black"/>
</svg>
