<svg width="22" height="22" viewBox="0 0 22 22" fill="none" xmlns="http://www.w3.org/2000/svg">
<rect width="22" height="22" rx="11" fill="#623aa2"/>
<path d="M13.916 16.8332C13.4299 16.8332 13.0167 16.663 12.6764 16.3228C12.3362 15.9825 12.166 15.5693 12.166 15.0832C12.166 15.0248 12.1806 14.8887 12.2098 14.6748L8.11185 12.2832C7.95629 12.429 7.77643 12.5432 7.57227 12.6259C7.3681 12.7085 7.14935 12.7498 6.91602 12.7498C6.4299 12.7498 6.01671 12.5797 5.67643 12.2394C5.33615 11.8991 5.16602 11.4859 5.16602 10.9998C5.16602 10.5137 5.33615 10.1005 5.67643 9.76025C6.01671 9.41998 6.4299 9.24984 6.91602 9.24984C7.14935 9.24984 7.3681 9.29116 7.57227 9.3738C7.77643 9.45643 7.95629 9.57067 8.11185 9.7165L12.2098 7.32484C12.1903 7.25678 12.1782 7.19116 12.1733 7.12796C12.1684 7.06477 12.166 6.99428 12.166 6.9165C12.166 6.43039 12.3362 6.0172 12.6764 5.67692C13.0167 5.33664 13.4299 5.1665 13.916 5.1665C14.4021 5.1665 14.8153 5.33664 15.1556 5.67692C15.4959 6.0172 15.666 6.43039 15.666 6.9165C15.666 7.40262 15.4959 7.81581 15.1556 8.15609C14.8153 8.49637 14.4021 8.6665 13.916 8.6665C13.6827 8.6665 13.4639 8.62518 13.2598 8.54255C13.0556 8.45991 12.8757 8.34567 12.7202 8.19984L8.62227 10.5915C8.64171 10.6596 8.65386 10.7252 8.65872 10.7884C8.66359 10.8516 8.66602 10.9221 8.66602 10.9998C8.66602 11.0776 8.66359 11.1481 8.65872 11.2113C8.65386 11.2745 8.64171 11.3401 8.62227 11.4082L12.7202 13.7998C12.8757 13.654 13.0556 13.5398 13.2598 13.4571C13.4639 13.3745 13.6827 13.3332 13.916 13.3332C14.4021 13.3332 14.8153 13.5033 15.1556 13.8436C15.4959 14.1839 15.666 14.5971 15.666 15.0832C15.666 15.5693 15.4959 15.9825 15.1556 16.3228C14.8153 16.663 14.4021 16.8332 13.916 16.8332ZM13.916 15.6665C14.0813 15.6665 14.2198 15.6106 14.3316 15.4988C14.4434 15.387 14.4993 15.2484 14.4993 15.0832C14.4993 14.9179 14.4434 14.7794 14.3316 14.6675C14.2198 14.5557 14.0813 14.4998 13.916 14.4998C13.7507 14.4998 13.6122 14.5557 13.5004 14.6675C13.3886 14.7794 13.3327 14.9179 13.3327 15.0832C13.3327 15.2484 13.3886 15.387 13.5004 15.4988C13.6122 15.6106 13.7507 15.6665 13.916 15.6665ZM6.91602 11.5832C7.08129 11.5832 7.21984 11.5273 7.33164 11.4155C7.44345 11.3037 7.49935 11.1651 7.49935 10.9998C7.49935 10.8346 7.44345 10.696 7.33164 10.5842C7.21984 10.4724 7.08129 10.4165 6.91602 10.4165C6.75074 10.4165 6.6122 10.4724 6.50039 10.5842C6.38859 10.696 6.33268 10.8346 6.33268 10.9998C6.33268 11.1651 6.38859 11.3037 6.50039 11.4155C6.6122 11.5273 6.75074 11.5832 6.91602 11.5832ZM13.916 7.49984C14.0813 7.49984 14.2198 7.44393 14.3316 7.33213C14.4434 7.22032 14.4993 7.08178 14.4993 6.9165C14.4993 6.75123 14.4434 6.61268 14.3316 6.50088C14.2198 6.38907 14.0813 6.33317 13.916 6.33317C13.7507 6.33317 13.6122 6.38907 13.5004 6.50088C13.3886 6.61268 13.3327 6.75123 13.3327 6.9165C13.3327 7.08178 13.3886 7.22032 13.5004 7.33213C13.6122 7.44393 13.7507 7.49984 13.916 7.49984Z" fill="white"/>
</svg>
