<svg width="20" height="20" viewBox="0 0 20 20" fill="none" xmlns="http://www.w3.org/2000/svg">
<path d="M2.22222 20C1.61111 20 1.08796 19.7824 0.652778 19.3472C0.217593 18.912 0 18.3889 0 17.7778V2.22222C0 1.61111 0.217593 1.08796 0.652778 0.652778C1.08796 0.217593 1.61111 0 2.22222 0H12.2222V2.22222H2.22222V17.7778H17.7778V7.77778H20V17.7778C20 18.3889 19.7824 18.912 19.3472 19.3472C18.912 19.7824 18.3889 20 17.7778 20H2.22222ZM5.55556 15.5556V13.3333H14.4444V15.5556H5.55556ZM5.55556 12.2222V10H14.4444V12.2222H5.55556ZM5.55556 8.88889V6.66667H14.4444V8.88889H5.55556ZM15.5556 6.66667V4.44444H13.3333V2.22222H15.5556V0H17.7778V2.22222H20V4.44444H17.7778V6.66667H15.5556Z" fill="#8A4ED7"/>
</svg>
