<svg width="29" height="28" viewBox="0 0 29 28" fill="none" xmlns="http://www.w3.org/2000/svg">
<path d="M6.33333 24.5C5.69167 24.5 5.14236 24.2715 4.68542 23.8146C4.22847 23.3576 4 22.8083 4 22.1667V5.83333C4 5.19167 4.22847 4.64236 4.68542 4.18542C5.14236 3.72847 5.69167 3.5 6.33333 3.5H22.6667C23.3083 3.5 23.8576 3.72847 24.3146 4.18542C24.7715 4.64236 25 5.19167 25 5.83333V22.1667C25 22.8083 24.7715 23.3576 24.3146 23.8146C23.8576 24.2715 23.3083 24.5 22.6667 24.5H6.33333ZM8.66667 19.8333H16.8333V17.5H8.66667V19.8333ZM8.66667 15.1667H20.3333V12.8333H8.66667V15.1667ZM8.66667 10.5H20.3333V8.16667H8.66667V10.5Z" fill="#8A4ED7"/>
</svg>
