<svg width="29" height="28" viewBox="0 0 29 28" fill="none" xmlns="http://www.w3.org/2000/svg">
<path d="M10.0832 21H19.4165V18.6667H10.0832V21ZM10.0832 16.3334H19.4165V14H10.0832V16.3334ZM7.74984 25.6667C7.10817 25.6667 6.55886 25.4382 6.10192 24.9813C5.64498 24.5243 5.4165 23.975 5.4165 23.3334V4.66671C5.4165 4.02504 5.64498 3.47574 6.10192 3.01879C6.55886 2.56185 7.10817 2.33337 7.74984 2.33337H17.0832L24.0832 9.33337V23.3334C24.0832 23.975 23.8547 24.5243 23.3978 24.9813C22.9408 25.4382 22.3915 25.6667 21.7498 25.6667H7.74984ZM15.9165 10.5V4.66671H7.74984V23.3334H21.7498V10.5H15.9165Z" fill="#111111"/>
</svg>
