<svg width="29" height="28" viewBox="0 0 29 28" fill="none" xmlns="http://www.w3.org/2000/svg">
<path d="M4.24984 22.1667C3.60817 22.1667 3.05887 21.9382 2.60192 21.4813C2.14498 21.0243 1.9165 20.475 1.9165 19.8334V8.16671C1.9165 7.52504 2.14498 6.97574 2.60192 6.51879C3.05887 6.06185 3.60817 5.83337 4.24984 5.83337H15.9165C16.5582 5.83337 17.1075 6.06185 17.5644 6.51879C18.0214 6.97574 18.2498 7.52504 18.2498 8.16671V19.8334C18.2498 20.475 18.0214 21.0243 17.5644 21.4813C17.1075 21.9382 16.5582 22.1667 15.9165 22.1667H4.24984ZM21.7498 12.8334C21.4193 12.8334 21.1422 12.7216 20.9186 12.498C20.695 12.2743 20.5832 11.9973 20.5832 11.6667V7.00004C20.5832 6.66949 20.695 6.3924 20.9186 6.16879C21.1422 5.94518 21.4193 5.83337 21.7498 5.83337H26.4165C26.7471 5.83337 27.0241 5.94518 27.2478 6.16879C27.4714 6.3924 27.5832 6.66949 27.5832 7.00004V11.6667C27.5832 11.9973 27.4714 12.2743 27.2478 12.498C27.0241 12.7216 26.7471 12.8334 26.4165 12.8334H21.7498ZM22.9165 10.5H25.2498V8.16671H22.9165V10.5ZM4.24984 19.8334H15.9165V8.16671H4.24984V19.8334ZM5.4165 17.5H14.7498L11.6873 13.4167L9.49984 16.3334L7.89567 14.2042L5.4165 17.5ZM21.7498 22.1667C21.4193 22.1667 21.1422 22.0549 20.9186 21.8313C20.695 21.6077 20.5832 21.3306 20.5832 21V16.3334C20.5832 16.0028 20.695 15.7257 20.9186 15.5021C21.1422 15.2785 21.4193 15.1667 21.7498 15.1667H26.4165C26.7471 15.1667 27.0241 15.2785 27.2478 15.5021C27.4714 15.7257 27.5832 16.0028 27.5832 16.3334V21C27.5832 21.3306 27.4714 21.6077 27.2478 21.8313C27.0241 22.0549 26.7471 22.1667 26.4165 22.1667H21.7498ZM22.9165 19.8334H25.2498V17.5H22.9165V19.8334Z" fill="#111111"/>
</svg>
