<svg width="29" height="28" viewBox="0 0 29 28" fill="none" xmlns="http://www.w3.org/2000/svg">
<path d="M4.25033 22.1667C3.60866 22.1667 3.05935 21.9382 2.60241 21.4813C2.14546 21.0243 1.91699 20.475 1.91699 19.8334V8.16671C1.91699 7.52504 2.14546 6.97574 2.60241 6.51879C3.05935 6.06185 3.60866 5.83337 4.25033 5.83337H15.917C16.5587 5.83337 17.108 6.06185 17.5649 6.51879C18.0219 6.97574 18.2503 7.52504 18.2503 8.16671V19.8334C18.2503 20.475 18.0219 21.0243 17.5649 21.4813C17.108 21.9382 16.5587 22.1667 15.917 22.1667H4.25033ZM21.7503 12.8334C21.4198 12.8334 21.1427 12.7216 20.9191 12.498C20.6955 12.2743 20.5837 11.9973 20.5837 11.6667V7.00004C20.5837 6.66949 20.6955 6.3924 20.9191 6.16879C21.1427 5.94518 21.4198 5.83337 21.7503 5.83337H26.417C26.7475 5.83337 27.0246 5.94518 27.2482 6.16879C27.4719 6.3924 27.5837 6.66949 27.5837 7.00004V11.6667C27.5837 11.9973 27.4719 12.2743 27.2482 12.498C27.0246 12.7216 26.7475 12.8334 26.417 12.8334H21.7503ZM5.41699 17.5H14.7503L11.6878 13.4167L9.50033 16.3334L7.89616 14.2042L5.41699 17.5ZM21.7503 22.1667C21.4198 22.1667 21.1427 22.0549 20.9191 21.8313C20.6955 21.6077 20.5837 21.3306 20.5837 21V16.3334C20.5837 16.0028 20.6955 15.7257 20.9191 15.5021C21.1427 15.2785 21.4198 15.1667 21.7503 15.1667H26.417C26.7475 15.1667 27.0246 15.2785 27.2482 15.5021C27.4719 15.7257 27.5837 16.0028 27.5837 16.3334V21C27.5837 21.3306 27.4719 21.6077 27.2482 21.8313C27.0246 22.0549 26.7475 22.1667 26.417 22.1667H21.7503Z" fill="#8A4ED7"/>
</svg>
